<?xml version="1.0" standalone="no"?>
<!DOCTYPE svg PUBLIC "-//W3C//DTD SVG 20010904//EN"
 "http://www.w3.org/TR/2001/REC-SVG-20010904/DTD/svg10.dtd">
<svg version="1.0" xmlns="http://www.w3.org/2000/svg"
 width="231.000000pt" height="231.000000pt" viewBox="0 0 231.000000 231.000000"
 preserveAspectRatio="xMidYMid meet">
<metadata>
Created by potrace 1.11, written by Peter Selinger 2001-2013
</metadata>
<g transform="translate(0.000000,231.000000) scale(0.100000,-0.100000)"
fill="#000000" stroke="none">
<path d="M1102 1853 c-26 -10 -33 -52 -15 -84 17 -28 16 -29 -5 -49 -12 -12
-22 -24 -23 -28 0 -4 -2 -15 -4 -24 -4 -21 38 -68 60 -68 9 0 25 5 36 11 15 8
24 7 37 -3 14 -11 15 -11 8 7 -17 41 -10 102 12 108 10 3 6 5 -11 6 -21 1 -28
-3 -26 -16 4 -42 -3 -44 -28 -7 -72 104 -72 141 2 136 23 -2 26 0 15 8 -16 10
-37 12 -58 3z m37 -167 c27 -43 26 -55 -1 -65 -49 -18 -88 41 -53 79 24 27 30
25 54 -14z"/>
<path d="M1329 1822 c9 -7 11 -19 5 -43 -4 -19 -8 -36 -9 -39 -13 -66 -31
-118 -43 -127 -9 -7 -14 -13 -11 -13 2 0 19 -4 37 -9 20 -6 32 -6 32 0 0 5 -7
9 -15 9 -18 0 -19 12 -4 63 7 28 15 37 26 33 8 -3 19 -6 24 -6 5 0 8 -3 7 -7
-1 -5 1 -29 6 -55 8 -52 30 -78 48 -60 9 9 8 12 -4 12 -18 0 -24 14 -33 73 -5
28 -3 37 8 37 24 0 49 36 45 66 -4 33 -40 60 -93 68 -25 4 -35 3 -26 -2z m94
-43 c23 -28 22 -45 -4 -63 -19 -13 -59 -13 -80 0 -4 2 -2 19 3 37 6 17 12 37
14 44 4 18 46 7 67 -18z"/>
<path d="M835 1795 c-16 -7 -25 -14 -18 -14 10 -1 20 -19 29 -56 23 -88 33
-137 28 -149 -4 -10 0 -13 13 -11 10 2 24 4 31 4 6 1 12 6 12 11 0 6 -8 10
-17 8 -12 -2 -19 6 -24 27 -3 17 -8 36 -10 44 -2 8 9 18 28 25 40 14 53 26 58
57 9 54 -62 84 -130 54z m101 -16 c18 -14 18 -53 1 -67 -7 -6 -25 -13 -40 -16
-24 -4 -28 -1 -38 37 -9 35 -8 43 6 53 19 14 50 11 71 -7z"/>
<path d="M813 1420 c-72 -16 -116 -71 -115 -143 1 -49 8 -57 23 -24 29 64 115
92 180 58 39 -20 51 -31 124 -112 17 -20 43 -43 56 -52 44 -31 45 -31 178 107
49 51 95 76 140 76 40 0 119 -65 112 -93 -1 -5 3 -6 9 -2 5 3 10 28 10 54 0
76 -49 124 -138 134 -57 7 -104 -19 -186 -103 -38 -39 -77 -70 -88 -70 -11 0
-54 33 -96 73 -43 41 -86 79 -97 84 -29 16 -75 21 -112 13z"/>
<path d="M1545 1285 c3 -62 -17 -95 -102 -171 -43 -38 -83 -73 -89 -79 -6 -5
-44 -39 -83 -74 -110 -98 -144 -187 -103 -267 38 -71 41 -72 35 -13 -9 92 12
124 183 274 136 120 156 140 175 177 24 47 24 101 0 153 l-18 40 2 -40z"/>
<path d="M663 1268 c-14 -48 -8 -108 18 -167 21 -50 83 -115 224 -236 90 -77
123 -114 136 -152 14 -43 27 -28 24 25 -3 51 -29 109 -63 140 -16 15 -71 65
-122 112 -155 142 -178 172 -195 258 l-11 54 -11 -34z"/>
<path d="M1740 886 c-69 -15 -147 -59 -229 -131 -35 -31 -84 -66 -110 -79 -78
-40 -156 -23 -182 39 -7 17 -8 16 -8 -8 -2 -78 53 -131 134 -131 64 1 111 25
204 108 88 77 171 124 237 133 46 6 47 7 26 21 l-23 15 22 23 c21 23 21 24 3
23 -10 0 -44 -6 -74 -13z"/>
<path d="M480 776 c0 -2 9 -13 20 -26 20 -23 20 -23 -1 -40 -20 -18 -19 -18
31 -29 74 -16 116 -41 195 -115 73 -69 147 -106 208 -106 18 0 56 12 84 26 59
29 94 86 94 151 0 33 -7 78 -11 78 -1 0 -4 11 -6 24 -8 44 -14 36 -14 -18 0
-29 -7 -69 -17 -88 -32 -69 -122 -103 -197 -74 -15 6 -51 34 -78 62 -58 59
-157 125 -207 138 -40 11 -101 21 -101 17z"/>
</g>
</svg>
