<svg xmlns="http://www.w3.org/2000/svg" width="663" height="223" viewBox="0 0 663 223">
    <g fill="none" fill-rule="evenodd">
        <path fill="#636463" d="M0 46.495v175.986h148.702v-26.253H26.281V46.495z"/>
        <path fill="#686B69" d="M287.849 46.495v26.496h129.006L285.879 196.228v26.253h172.363v-26.253l-136.542-.244L452.326 73.07V46.495zM484.518 46.495v26.253h75.775v149.733h26.28V72.748h75.777V46.495z"/>
        <path fill="#1D998E" d="M189.378 83.305c-5.543 3.287-7.712 9.586-8.176 10.936a23.468 23.468 0 0 0-.89 3.403V46.495h27.899v38.556c-6.21-4.266-13.32-5.016-18.833-1.746zM189.378 123.533c-1.83-1.783-4.7-4.57-6.814-9.373a31.31 31.31 0 0 1-2.252-7.402V222.48h27.899v-80.23c-7.175-7.224-13.254-13.278-18.833-18.718M179.906 32.513h28.304V.001h-28.304zM246.81 83.305c5.542 3.287 7.71 9.586 8.175 10.936.396 1.15.685 2.288.89 3.403V46.495h-27.899v38.556c6.21-4.266 13.32-5.016 18.833-1.746M253.623 114.16c-2.114 4.803-4.985 7.59-6.814 9.372-5.579 5.44-11.658 11.495-18.832 18.72v80.23h27.898V106.757a31.28 31.28 0 0 1-2.252 7.401M227.977 32.513h28.304V.001h-28.304z"/>
    </g>
</svg>
