<?xml version="1.0" standalone="no"?>
<!DOCTYPE svg PUBLIC "-//W3C//DTD SVG 20010904//EN"
 "http://www.w3.org/TR/2001/REC-SVG-20010904/DTD/svg10.dtd">
<svg version="1.0" xmlns="http://www.w3.org/2000/svg"
 width="146.000000pt" height="146.000000pt" viewBox="0 0 146.000000 146.000000"
 preserveAspectRatio="xMidYMid meet">
<metadata>
Created by potrace 1.11, written by Peter Selinger 2001-2013
</metadata>
<g transform="translate(0.000000,146.000000) scale(0.100000,-0.100000)"
fill="#000000" stroke="none">
<path d="M650 1422 c-49 -15 -63 -63 -33 -109 17 -25 17 -27 -1 -37 -57 -34
-66 -47 -66 -92 0 -62 32 -94 92 -94 24 0 51 7 61 14 15 12 22 12 46 0 38 -19
76 -5 85 32 8 29 -5 51 -23 40 -6 -4 -11 -13 -11 -21 0 -17 -23 -26 -40 -15
-16 10 -15 79 0 94 6 6 23 11 38 11 20 0 28 6 30 23 4 27 -20 39 -57 26 -21
-8 -28 -19 -37 -59 l-11 -50 -23 46 -22 46 26 26 c57 57 18 141 -54 119z m46
-46 c6 -17 -16 -68 -30 -70 -13 -1 -29 51 -22 69 7 19 45 19 52 1z m-17 -168
l30 -53 -22 -12 c-41 -23 -75 -16 -97 20 -11 17 -15 34 -10 35 6 2 10 9 10 17
0 12 37 43 52 44 4 1 21 -23 37 -51z"/>
<path d="M995 1380 c-3 -5 0 -18 6 -28 13 -21 12 -26 -43 -172 -22 -60 -26
-65 -56 -68 -43 -4 -40 -24 6 -39 20 -6 44 -14 52 -17 8 -3 22 -2 30 3 12 8
12 13 -4 30 -17 19 -18 25 -6 62 8 22 16 42 20 44 4 2 23 -1 43 -7 34 -10 43
-24 37 -53 -1 -5 -4 -18 -6 -28 -2 -10 -6 -27 -9 -38 -15 -48 52 -91 80 -52
18 24 7 45 -18 37 -19 -6 -20 -3 -14 41 4 26 7 54 7 61 0 7 13 21 29 30 53 31
58 127 8 152 -25 13 -137 52 -149 52 -4 0 -9 -4 -13 -10z m119 -64 c42 -17 55
-50 30 -77 -20 -22 -58 -25 -97 -6 -31 14 -33 23 -11 65 17 36 29 38 78 18z"/>
<path d="M260 1327 c-59 -22 -85 -54 -41 -51 19 1 27 -3 28 -16 1 -10 19 -60
41 -111 37 -86 39 -95 25 -116 -8 -12 -12 -27 -8 -32 3 -6 -4 -23 -15 -39 -26
-34 -36 -97 -21 -132 8 -21 10 -22 11 -5 2 67 121 120 190 86 14 -7 61 -50
105 -96 113 -118 117 -118 219 -13 102 106 136 125 213 120 29 -2 107 -77 97
-93 -4 -8 -3 -10 4 -5 16 9 15 95 -1 123 -27 48 -96 82 -155 76 -50 -4 -90
-29 -158 -99 -97 -100 -98 -100 -204 0 -84 80 -121 102 -172 99 -10 0 -15 4
-12 9 9 14 -15 38 -32 31 -13 -5 -26 18 -40 71 -5 21 0 26 30 36 82 27 104
130 35 166 -35 18 -74 15 -139 -9z m125 -32 c33 -32 32 -39 -10 -71 -40 -30
-85 -28 -85 6 0 10 -4 22 -10 25 -20 12 -9 36 23 50 45 20 54 19 82 -10z"/>
<path d="M1134 885 c6 -77 -11 -100 -164 -234 -215 -187 -228 -203 -237 -296
-5 -46 -2 -60 21 -99 30 -52 42 -59 31 -18 -27 97 10 153 219 332 95 82 135
123 151 156 20 43 17 121 -6 166 l-18 33 3 -40z"/>
<path d="M225 855 c-12 -56 -12 -64 3 -120 22 -78 45 -108 185 -232 155 -137
186 -169 199 -205 17 -48 31 -33 25 27 -7 73 -30 107 -134 201 -202 181 -235
222 -258 319 l-12 50 -8 -40z"/>
<path d="M1325 466 c-54 -13 -155 -64 -155 -78 0 -4 -6 -8 -14 -8 -8 0 -16 -4
-18 -9 -7 -18 -115 -104 -153 -122 -70 -32 -138 -23 -178 25 -18 21 -18 21
-12 -19 4 -28 16 -50 40 -72 30 -29 42 -33 88 -33 67 0 133 32 204 99 68 65
135 110 195 133 26 10 50 18 53 18 3 0 17 0 32 0 l27 0 -23 16 -22 16 22 24
22 24 -29 -1 c-16 0 -51 -6 -79 -13z"/>
<path d="M40 352 c0 -3 7 -13 15 -22 15 -17 11 -50 -6 -50 -5 0 -9 -5 -9 -12
0 -6 3 -9 6 -6 10 11 118 -24 158 -52 23 -15 66 -51 96 -80 106 -101 215 -125
309 -66 50 32 73 74 77 142 3 49 -13 124 -25 124 -3 0 -7 -22 -8 -49 -3 -87
-54 -148 -132 -158 -58 -8 -108 14 -165 71 -58 59 -129 110 -183 132 -39 17
-133 35 -133 26z"/>
</g>
</svg>
